# xmcd
#
# Track frame offsets: 
#        150
#        17564
#        21841
#        37940
#        54586
#        72278
#        102866
#        145847
#        180189
#        214840
#
# Disc length: 3464 seconds
#
# Revision: 0
# Processed by: cddbd v1.5.2PL0 Copyright (c) Steve Scherf et al.
# Submitted via: ExactAudioCopy v0.95b3
#
DISCID=7d0d860a
DTITLE=Jimi Hendrix  - Drifting Try-outs, Mixing and Overdubbing Session
DTITLE=s  FLAC
DYEAR=1900
DGENRE=
TTITLE0=Drifting - June 25, 1970
TTITLE1=Drifting - June 25, 1970
TTITLE2=Drifting - July 23, 1970
TTITLE3=Drifting - July 23, 1970
TTITLE4=Drifting - August 14, 1970
TTITLE5=Drifting - August 14, 1970
TTITLE6=Drifting - August 14, 1970
TTITLE7=Drifting - August 14, 1970
TTITLE8=Drifting - August 14, 1970
TTITLE9=Drifting - August 14, 1970
EXTD=
EXTT0=
EXTT1=
EXTT2=
EXTT3=
EXTT4=
EXTT5=
EXTT6=
EXTT7=
EXTT8=
EXTT9=
PLAYORDER=
